<?xml version="1.0" encoding="UTF-8" standalone="no"?>
<svg
   xmlns:dc="http://purl.org/dc/elements/1.1/"
   xmlns:cc="http://creativecommons.org/ns#"
   xmlns:rdf="http://www.w3.org/1999/02/22-rdf-syntax-ns#"
   xmlns:svg="http://www.w3.org/2000/svg"
   xmlns="http://www.w3.org/2000/svg"
   xmlns:sodipodi="http://sodipodi.sourceforge.net/DTD/sodipodi-0.dtd"
   xmlns:inkscape="http://www.inkscape.org/namespaces/inkscape"
   width="791.71265"
   height="225.57706"
   viewBox="0 0 162.14275 46.191094"
   version="1.1"
   id="svg20"
   sodipodi:docname="mongodb.svg"
   inkscape:version="0.92.3 (2405546, 2018-03-11)">
  <metadata
     id="metadata26">
    <rdf:RDF>
      <cc:Work
         rdf:about="">
        <dc:format>image/svg+xml</dc:format>
        <dc:type
           rdf:resource="http://purl.org/dc/dcmitype/StillImage" />
        <dc:title></dc:title>
      </cc:Work>
    </rdf:RDF>
  </metadata>
  <defs
     id="defs24" />
  <sodipodi:namedview
     pagecolor="#ffffff"
     bordercolor="#666666"
     borderopacity="1"
     objecttolerance="10"
     gridtolerance="10"
     guidetolerance="10"
     inkscape:pageopacity="0"
     inkscape:pageshadow="2"
     inkscape:window-width="1366"
     inkscape:window-height="731"
     id="namedview22"
     showgrid="false"
     inkscape:zoom="0.22410313"
     inkscape:cx="-140.25821"
     inkscape:cy="-120.65133"
     inkscape:window-x="0"
     inkscape:window-y="18"
     inkscape:window-maximized="0"
     inkscape:current-layer="svg20" />
  <g
     id="g18"
     style="fill:none;fill-rule:evenodd"
     transform="matrix(0.31704915,0,0,0.31704915,1.4007685e-5,-0.07064448)">
    <path
       d="m 476.713,60.463 c -0.46,0.092 -0.922,1.107 -0.922,1.66 -0.092,3.692 -0.184,13.474 -0.184,20.118 0,0.185 0.276,0.554 0.553,0.554 1.384,0.092 4.706,0.184 7.567,0.184 3.968,0 6.275,-0.553 7.568,-1.106 3.321,-1.662 4.89,-5.261 4.89,-9.23 0,-8.95 -6.275,-12.365 -15.596,-12.365 -0.646,-0.092 -2.49,-0.092 -3.876,0.185 z m 23.81,41.25 c 0,-9.136 -6.737,-14.212 -18.918,-14.212 -0.554,0 -4.43,-0.092 -5.353,0.092 -0.277,0.093 -0.645,0.278 -0.645,0.555 0,6.551 -0.093,16.98 0.184,21.04 0.184,1.753 1.477,4.245 3.046,4.983 1.66,0.923 5.444,1.107 8.028,1.107 7.29,0 13.658,-4.06 13.658,-13.565 z M 457.889,55.388 c 0.922,0 3.69,0.276 10.796,0.276 6.737,0 12.089,-0.184 18.641,-0.184 8.028,0 19.102,2.86 19.102,14.857 0,5.906 -4.153,10.613 -9.597,12.92 -0.276,0.092 -0.276,0.276 0,0.368 7.751,1.939 14.581,6.737 14.581,15.78 0,8.86 -5.537,14.489 -13.566,17.996 -4.891,2.122 -10.981,2.86 -17.164,2.86 -4.707,0 -17.349,-0.553 -24.362,-0.368 -0.738,-0.278 0.646,-3.6 1.291,-4.153 1.662,-0.093 2.953,-0.185 4.707,-0.739 2.492,-0.645 2.768,-1.384 3.137,-5.167 0.185,-3.23 0.185,-14.674 0.185,-22.794 0,-11.166 0.093,-18.733 0,-22.424 -0.092,-2.86 -1.107,-3.784 -3.137,-4.338 -1.57,-0.276 -4.153,-0.646 -6.276,-0.922 -0.462,-0.462 1.107,-3.6 1.662,-3.968 z m -53.248,57.399 c 2.216,1.752 6.553,2.49 10.429,2.49 4.983,0 9.966,-0.921 14.765,-5.26 4.891,-4.428 8.305,-11.257 8.305,-22.146 0,-10.429 -3.968,-18.919 -12.089,-23.901 -4.614,-2.862 -10.52,-4.06 -17.349,-4.06 -2.03,0 -3.968,0.092 -5.167,0.645 -0.278,0.185 -0.923,1.015 -0.923,1.476 -0.185,1.846 -0.185,16.057 -0.185,24.363 0,8.582 0,20.579 0.185,21.963 0,1.385 0.645,3.507 2.03,4.43 z m -20.948,-57.4 c 1.754,0 8.49,0.277 11.72,0.277 5.815,0 9.967,-0.276 20.948,-0.276 9.228,0 16.98,2.491 22.517,7.197 6.736,5.814 10.244,13.843 10.244,23.624 0,13.935 -6.368,21.964 -12.736,26.578 -6.366,4.706 -14.672,7.474 -26.484,7.474 -6.275,0 -17.072,-0.184 -26.024,-0.277 h -0.092 c -0.461,-0.83 0.738,-4.06 1.476,-4.152 2.4,-0.277 3.046,-0.37 4.246,-0.83 1.937,-0.739 2.307,-1.754 2.584,-5.168 0.276,-6.368 0.184,-14.027 0.184,-22.702 0,-6.182 0.092,-18.272 -0.093,-22.148 -0.276,-3.229 -1.66,-4.06 -4.429,-4.614 -1.384,-0.276 -3.23,-0.646 -5.813,-0.922 -0.37,-0.647 1.291,-3.507 1.752,-4.06 z"
       id="path2"
       inkscape:connector-curvature="0"
       style="fill:#8e714e" />
    <path
       d="m 272.033,116.385 c -2.307,-0.277 -3.968,-0.645 -5.998,-1.568 -0.277,-0.185 -0.739,-1.107 -0.739,-1.477 -0.184,-3.23 -0.184,-12.458 -0.184,-18.64 0,-4.984 -0.83,-9.321 -2.953,-12.366 -2.492,-3.508 -6.09,-5.537 -10.705,-5.537 -4.06,0 -9.505,2.768 -14.027,6.644 -0.092,0.092 -0.83,0.739 -0.738,-0.277 0,-1.015 0.185,-3.045 0.277,-4.43 0.093,-1.292 -0.646,-1.937 -0.646,-1.937 -2.953,1.476 -11.258,3.414 -14.304,3.69 -2.214,0.463 -2.768,2.585 -0.46,3.323 h 0.092 c 2.49,0.738 4.152,1.569 5.443,2.4 0.923,0.738 0.831,1.753 0.831,2.584 0.092,6.92 0.092,17.533 -0.184,23.347 -0.092,2.307 -0.738,3.137 -2.4,3.506 l 0.185,-0.092 c -1.292,0.277 -2.307,0.553 -3.876,0.738 -0.554,0.554 -0.554,3.507 0,4.153 1.015,0 6.367,-0.277 10.798,-0.277 6.09,0 9.228,0.277 10.796,0.277 0.646,-0.738 0.831,-3.507 0.462,-4.153 -1.754,-0.092 -3.046,-0.276 -4.245,-0.646 -1.661,-0.37 -2.123,-1.199 -2.216,-3.137 -0.183,-4.892 -0.183,-15.227 -0.183,-22.24 0,-1.938 0.553,-2.861 1.106,-3.415 2.123,-1.845 5.538,-3.137 8.583,-3.137 2.953,0 4.89,0.923 6.367,2.123 2.03,1.66 2.676,4.06 2.953,5.813 0.461,3.968 0.277,11.812 0.277,18.641 0,3.691 -0.277,4.614 -1.66,5.075 -0.647,0.277 -2.308,0.647 -4.246,0.83 -0.646,0.647 -0.461,3.508 0,4.154 2.676,0 5.814,-0.277 10.428,-0.277 5.721,0 9.413,0.277 10.89,0.277 0.46,-0.554 0.645,-3.23 0.276,-3.969 z m 25.562,-35.25 c -4.89,0 -7.936,3.783 -7.936,9.688 0,5.999 2.676,12.92 10.243,12.92 1.292,0 3.692,-0.554 4.798,-1.846 1.754,-1.66 2.954,-4.983 2.954,-8.49 0,-7.659 -3.784,-12.273 -10.059,-12.273 z m -0.646,40.787 c -1.845,0 -3.138,0.554 -3.968,1.016 -3.876,2.49 -5.629,4.89 -5.629,7.752 0,2.675 1.015,4.797 3.23,6.643 2.676,2.307 6.367,3.415 11.073,3.415 9.413,0 13.566,-5.076 13.566,-10.058 0,-3.508 -1.754,-5.815 -5.352,-7.106 -2.584,-1.108 -7.29,-1.662 -12.92,-1.662 z m 0.646,23.994 c -5.629,0 -9.69,-1.2 -13.196,-3.876 -3.415,-2.584 -4.891,-6.46 -4.891,-9.136 0,-0.738 0.185,-2.769 1.846,-4.614 1.014,-1.108 3.23,-3.23 8.49,-6.829 0.184,-0.092 0.276,-0.184 0.276,-0.37 0,-0.184 -0.185,-0.369 -0.369,-0.46 -4.337,-1.661 -5.629,-4.338 -5.999,-5.814 v -0.185 c -0.091,-0.554 -0.276,-1.107 0.555,-1.661 0.646,-0.461 1.569,-1.015 2.583,-1.66 1.569,-0.924 3.23,-1.939 4.245,-2.77 0.185,-0.184 0.185,-0.368 0.185,-0.553 0,-0.185 -0.185,-0.37 -0.37,-0.461 -6.458,-2.123 -9.688,-6.922 -9.688,-14.12 0,-4.706 2.122,-8.951 5.905,-11.627 2.584,-2.03 9.044,-4.522 13.289,-4.522 h 0.277 c 4.337,0.092 6.736,1.015 10.15,2.215 1.846,0.646 3.6,0.922 6,0.922 3.598,0 5.167,-1.107 6.458,-2.398 0.093,0.184 0.278,0.646 0.37,1.845 0.092,1.2 -0.277,2.953 -1.2,4.245 -0.738,1.015 -2.399,1.754 -4.06,1.754 h -0.462 c -1.661,-0.185 -2.4,-0.37 -2.4,-0.37 l -0.368,0.185 c -0.092,0.185 0,0.369 0.092,0.646 l 0.093,0.185 c 0.184,0.83 0.553,3.321 0.553,3.968 0,7.567 -3.045,10.888 -6.275,13.38 -3.138,2.307 -6.736,3.783 -10.797,4.153 -0.092,0 -0.46,0 -1.292,0.092 -0.461,0 -1.107,0.093 -1.2,0.093 h -0.092 c -0.738,0.184 -2.583,1.107 -2.583,2.675 0,1.384 0.83,3.046 4.798,3.323 0.83,0.092 1.66,0.092 2.584,0.185 5.26,0.368 11.812,0.83 14.857,1.845 4.245,1.568 6.921,5.352 6.921,9.874 0,6.83 -4.89,13.197 -13.011,17.164 -3.968,1.754 -7.937,2.677 -12.274,2.677 z m 52.6,-64.32 c -1.937,0 -3.691,0.46 -4.983,1.383 -3.598,2.215 -5.444,6.645 -5.444,13.104 0,12.09 6.09,20.58 14.765,20.58 2.584,0 4.614,-0.739 6.367,-2.215 2.676,-2.216 4.061,-6.645 4.061,-12.828 0,-11.996 -5.999,-20.025 -14.765,-20.025 z m 1.662,39.496 c -15.688,0 -21.317,-11.535 -21.317,-22.332 0,-7.567 3.045,-13.381 9.135,-17.534 4.338,-2.676 9.506,-4.152 14.12,-4.152 11.996,0 20.394,8.582 20.394,20.948 0,8.397 -3.322,15.041 -9.69,19.102 -3.045,2.03 -8.305,3.968 -12.643,3.968 z M 187.411,81.595 c -1.938,0 -3.691,0.461 -4.984,1.384 -3.598,2.215 -5.444,6.645 -5.444,13.104 0,12.09 6.09,20.58 14.765,20.58 2.584,0 4.614,-0.739 6.368,-2.215 2.675,-2.216 4.06,-6.645 4.06,-12.828 0,-11.996 -5.906,-20.025 -14.765,-20.025 z m 1.661,39.497 c -15.688,0 -21.317,-11.535 -21.317,-22.332 0,-7.567 3.045,-13.381 9.135,-17.534 4.338,-2.676 9.506,-4.152 14.12,-4.152 11.997,0 20.394,8.582 20.394,20.948 0,8.397 -3.322,15.041 -9.69,19.102 -2.953,2.03 -8.213,3.968 -12.642,3.968 z M 83.594,120.169 c -0.185,-0.276 -0.37,-1.107 -0.277,-2.122 0,-0.739 0.185,-1.2 0.277,-1.384 1.938,-0.278 2.953,-0.555 4.06,-0.831 1.846,-0.462 2.584,-1.476 2.676,-3.783 0.278,-5.537 0.278,-16.058 0.185,-23.348 v -0.185 c 0,-0.83 0,-1.846 -1.015,-2.584 -1.477,-0.922 -3.23,-1.752 -5.537,-2.4 -0.83,-0.275 -1.384,-0.737 -1.292,-1.29 0,-0.554 0.554,-1.2 1.754,-1.385 3.045,-0.277 10.98,-2.214 14.118,-3.599 0.185,0.184 0.462,0.739 0.462,1.477 l -0.092,1.014 c -0.093,1.016 -0.185,2.216 -0.185,3.415 0,0.369 0.37,0.646 0.738,0.646 0.185,0 0.37,-0.092 0.554,-0.185 5.906,-4.614 11.258,-6.275 14.026,-6.275 4.523,0 8.03,2.123 10.706,6.552 0.184,0.278 0.369,0.37 0.646,0.37 0.184,0 0.46,-0.092 0.553,-0.277 5.445,-4.153 10.89,-6.645 14.488,-6.645 8.582,0 13.658,6.368 13.658,17.165 0,3.045 0,7.013 -0.092,10.613 0,3.229 -0.092,6.182 -0.092,8.305 0,0.46 0.645,1.937 1.66,2.214 1.292,0.646 3.046,0.923 5.353,1.292 h 0.092 c 0.185,0.646 -0.184,3.045 -0.553,3.507 -0.554,0 -1.385,0 -2.307,-0.092 a 136.208,136.208 0 0 0 -7.014,-0.185 c -5.721,0 -8.674,0.092 -11.536,0.277 -0.183,-0.738 -0.276,-2.953 0,-3.507 1.662,-0.276 2.492,-0.554 3.508,-0.83 1.846,-0.554 2.307,-1.385 2.4,-3.784 0,-1.753 0.368,-16.703 -0.186,-20.302 -0.553,-3.691 -3.322,-8.028 -9.413,-8.028 -2.307,0 -5.905,0.923 -9.412,3.598 -0.184,0.185 -0.37,0.646 -0.37,0.923 v 0.093 c 0.37,1.937 0.37,4.153 0.37,7.567 v 5.998 c 0,4.153 -0.093,8.029 0,10.981 0,2.031 1.2,2.492 2.215,2.862 0.554,0.091 0.922,0.184 1.384,0.276 0.83,0.185 1.661,0.37 2.953,0.646 0.185,0.37 0.185,1.569 -0.092,2.584 -0.093,0.554 -0.278,0.83 -0.37,0.923 -3.137,-0.092 -6.367,-0.185 -11.073,-0.185 -1.384,0 -3.784,0.093 -5.814,0.093 -1.662,0 -3.23,0.092 -4.152,0.092 -0.093,-0.185 -0.278,-0.83 -0.278,-1.846 0,-0.83 0.185,-1.476 0.37,-1.661 0.461,-0.092 0.83,-0.184 1.292,-0.184 1.106,-0.185 2.03,-0.37 2.952,-0.554 1.57,-0.461 2.123,-1.292 2.215,-3.322 0.277,-4.614 0.554,-17.81 -0.092,-21.133 -1.107,-5.352 -4.152,-8.028 -9.044,-8.028 -2.86,0 -6.46,1.384 -9.412,3.6 -0.462,0.368 -0.831,1.29 -0.831,2.121 v 5.445 c 0,6.644 0,14.95 0.092,18.549 0.093,1.106 0.461,2.399 2.584,2.86 0.462,0.092 1.2,0.277 2.123,0.37 l 1.66,0.276 c 0.186,0.554 0.093,2.769 -0.276,3.507 -0.923,0 -2.03,-0.092 -3.323,-0.092 -1.937,-0.093 -4.429,-0.185 -7.197,-0.185 -3.23,0 -5.537,0.092 -7.383,0.185 -1.292,-0.185 -2.307,-0.185 -3.414,-0.185 z"
       id="path4"
       inkscape:connector-curvature="0"
       style="fill:#442d22" />
    <path
       d="m 35.053,142.317 -3.783,-1.293 c 0,0 0.462,-19.286 -6.46,-20.67 -4.613,-5.353 0.74,-227.013 17.35,-0.739 0,0 -5.722,2.86 -6.737,7.752 -1.108,4.799 -0.37,14.95 -0.37,14.95 z"
       id="path6"
       inkscape:connector-curvature="0"
       style="fill:#ffffff" />
    <path
       d="m 35.053,142.317 -3.783,-1.293 c 0,0 0.462,-19.286 -6.46,-20.67 -4.613,-5.353 0.74,-227.013 17.35,-0.739 0,0 -5.722,2.86 -6.737,7.752 -1.108,4.799 -0.37,14.95 -0.37,14.95 z"
       id="path8"
       inkscape:connector-curvature="0"
       style="fill:#a6a385" />
    <path
       d="m 37.084,123.676 c 0,0 33.13,-21.779 25.377,-67.09 C 54.987,23.643 37.361,12.846 35.423,8.693 33.301,5.74 31.27,0.573 31.27,0.573 l 1.385,91.634 c 0,0.093 -2.861,28.054 4.43,31.47"
       id="path10"
       inkscape:connector-curvature="0"
       style="fill:#ffffff" />
    <path
       d="m 37.084,123.676 c 0,0 33.13,-21.779 25.377,-67.09 C 54.987,23.643 37.361,12.846 35.423,8.693 33.301,5.74 31.27,0.573 31.27,0.573 l 1.385,91.634 c 0,0.093 -2.861,28.054 4.43,31.47"
       id="path12"
       inkscape:connector-curvature="0"
       style="fill:#499d4a" />
    <path
       d="m 29.333,124.875 c 0,0 -31.1,-21.225 -29.254,-58.598 1.753,-37.374 23.716,-55.738 27.961,-59.06 2.769,-2.953 2.861,-4.061 3.046,-7.014 1.938,4.153 1.569,62.106 1.845,68.934 0.83,26.3 -1.476,50.756 -3.598,55.738 z"
       id="path14"
       inkscape:connector-curvature="0"
       style="fill:#ffffff" />
    <path
       d="m 29.333,124.875 c 0,0 -31.1,-21.225 -29.254,-58.598 1.753,-37.374 23.716,-55.738 27.961,-59.06 2.769,-2.953 2.861,-4.061 3.046,-7.014 1.938,4.153 1.569,62.106 1.845,68.934 0.83,26.3 -1.476,50.756 -3.598,55.738 z"
       id="path16"
       inkscape:connector-curvature="0"
       style="fill:#58aa50" />
  </g>
</svg>
